<svg width="21" height="20" viewBox="0 0 21 20" fill="none" xmlns="http://www.w3.org/2000/svg">
<path d="M14.6077 6.30769C14.6077 8.68677 12.6791 10.6154 10.3 10.6154C7.92098 10.6154 5.99236 8.68677 5.99236 6.30769C5.99236 3.92862 7.92098 2 10.3 2C12.6791 2 14.6077 3.92862 14.6077 6.30769ZM13.377 6.30769C13.377 4.60835 11.9994 3.23077 10.3 3.23077C8.60071 3.23077 7.22313 4.60835 7.22313 6.30769C7.22313 8.00703 8.60071 9.38462 10.3 9.38462C11.9994 9.38462 13.377 8.00703 13.377 6.30769Z" fill="#616161"/>
<path d="M17.6393 13.5111C18.0502 13.7074 18.3 14.1288 18.3 14.5842V17.3846C18.3 17.7245 18.0245 18 17.6847 18H2.91544C2.57557 18 2.30005 17.7245 2.30005 17.3846V14.5842C2.30005 14.1288 2.54991 13.7074 2.9608 13.5111C5.19162 12.4456 7.67421 11.8462 10.3 11.8462C12.9259 11.8462 15.4085 12.4456 17.6393 13.5111ZM10.3 13.0769C7.87962 13.0769 5.59155 13.6255 3.53082 14.6029V16.7692H17.0693V14.6029C15.0085 13.6255 12.7205 13.0769 10.3 13.0769Z" fill="#616161"/>
</svg>
